# Blender v2.79 (sub 0) OBJ File: ''
# www.blender.org
mtllib CRYSTAL_LP.mtl
o RetopoGroup1
v 0.687864 0.726385 0.189733
v 0.441370 1.189593 -0.145403
v 0.602561 0.923500 0.399233
v 0.630820 0.825651 0.352144
v 0.454258 1.169501 -0.248500
v 0.650984 0.773444 -0.090866
v 0.296776 1.437248 -0.390217
v 0.229086 1.540250 -0.285119
v 0.156989 1.633791 0.235734
v 0.372356 1.324302 -0.506066
v 0.470123 1.148282 -0.362113
v 0.634976 0.832918 -0.398627
v 0.646039 0.841999 -0.561083
v 0.683059 0.646379 -0.200354
v 0.711226 0.558827 -0.361812
v 0.291325 1.312221 -0.683798
v 0.323576 1.398260 -0.614372
v 0.621742 0.838007 -0.665237
v 0.568543 0.797837 -0.763346
v -0.053450 1.315384 -0.678913
v -0.364709 1.324267 -0.686191
v 0.101702 1.734777 -0.362253
v 0.205359 1.572314 -0.480543
v -0.398325 1.490444 -0.544521
v -0.223309 1.755519 -0.349812
v -0.136026 1.992426 0.102141
v -0.066911 1.990818 0.120631
v -0.498816 1.491891 -0.180954
v -0.520078 1.534034 0.056089
v -0.746965 1.194872 -0.276647
v -0.725103 1.287149 -0.003931
v 0.052506 1.183936 0.494887
v -0.143353 1.452176 0.429884
v -0.194486 0.884545 0.722330
v -0.027003 0.744609 0.727515
v 0.389755 0.710319 0.596490
v 0.257804 0.491083 0.715297
v -0.787240 0.940034 0.114233
v -0.411074 0.592185 0.709074
v -0.785626 0.382003 0.478031
v -0.562752 0.348047 0.689268
v -0.791532 0.960502 -0.377743
v -0.122593 0.278157 0.700960
v 0.206049 0.117034 0.697850
v -0.451357 -0.052127 0.667938
v -0.351768 -0.495400 0.638681
v -0.084361 -0.431991 0.651966
v 0.127381 -0.387590 0.671290
v 0.517133 0.504392 0.415075
v 0.462244 0.323062 0.442553
v 0.375466 0.073225 0.494686
v 0.219398 -0.412575 0.576892
v 0.716396 0.541892 0.062340
v 0.780396 0.351891 -0.126193
v 0.706530 0.592463 -0.061861
v 0.743973 0.450291 -0.238058
v 0.611423 0.561836 -0.596235
v 0.493007 0.590096 -0.775889
v 0.582520 0.370602 -0.598137
v 0.557969 0.197056 -0.600510
v 0.471388 0.370514 -0.780868
v 0.479509 0.474851 -0.776263
v 0.493559 0.363125 -0.867631
v 0.564079 0.168359 -0.651924
v 0.653148 -0.179940 -0.249980
v 0.645881 -0.188942 -0.298919
v 0.694739 -0.310098 -0.104147
v 0.722205 0.000407 -0.149844
v 0.718675 0.007639 -0.074139
v 0.711583 -0.108130 -0.116096
v 0.669456 -0.306179 -0.049957
v -0.018352 0.866089 -0.734181
v -0.540008 0.933790 -0.743934
v -0.090446 0.516752 -0.751314
v -0.118554 0.603443 -0.747974
v -0.197536 0.486575 -0.751409
v -0.412813 0.568714 -0.761311
v -0.701349 0.162594 -0.777294
v -0.711068 0.306006 -0.782816
v -0.149534 0.699018 -0.745042
v -0.649651 0.659277 -0.780476
v -0.776203 0.310318 -0.727906
v -0.794206 0.455340 -0.713585
v -0.805382 0.189519 -0.712835
v -0.797559 0.490749 -0.428732
v -0.789268 0.152605 0.099270
v -0.750843 0.110581 -0.859761
v -0.855871 0.150783 -0.778333
v -0.191354 0.447613 -0.795994
v -0.085425 0.486694 -0.796148
v -0.868697 0.465001 -0.442268
v -0.780506 0.013422 0.403381
v -0.718302 -0.450023 0.303475
v -0.777026 -0.356808 -0.665690
v -0.737776 -0.309752 -0.733427
v -0.226347 -0.342846 -0.736376
v 0.186610 -0.360026 -0.739354
v 0.624771 -0.325763 -0.306178
v 0.500431 -0.321482 -0.610305
v 0.434719 -0.321093 -0.760080
v 0.401178 -0.950081 -0.565849
v -0.119921 -0.996779 -0.539700
v -0.296180 -0.970771 -0.550045
v -0.622344 -0.941895 -0.538311
v -0.699797 -0.908501 -0.472726
v -0.672448 -0.923711 0.181437
v -0.351015 -0.942284 0.547491
v -0.079148 -0.921850 0.533160
v 0.157104 -0.877309 0.545145
v 0.423229 -0.804182 0.254192
v 0.638790 -0.777846 -0.027009
v 0.584175 -0.765806 -0.217074
v 0.490964 -0.876096 -0.389415
v 0.609885 -1.009433 -0.023405
v 0.514837 -1.041101 -0.219948
v 0.459235 -0.989914 -0.404831
v 0.366398 -1.083948 0.270519
v 0.149706 -1.186771 0.493366
v -0.382253 -1.243536 0.490322
v -0.151182 -1.224494 0.488901
v -0.655905 -1.088192 0.145894
v -0.685473 -1.096219 -0.402918
v -0.637098 -1.207073 -0.439467
v 0.211823 -1.491395 -0.399126
v -0.330525 -1.484523 -0.391598
v -0.336502 -1.741707 -0.311213
v -0.484393 -1.706065 -0.289817
v 0.064130 -1.884288 -0.271148
v -0.009802 -1.926791 -0.256515
v -0.062789 -1.684108 -0.335640
v -0.459782 -1.771238 0.025813
v -0.509575 -1.577274 0.232441
v -0.403508 -1.480401 0.423236
v -0.145010 -1.677763 0.374604
v 0.198305 -1.817409 0.314148
v 0.109465 -1.917619 0.274930
v -0.058570 -1.970976 0.098657
v 0.226858 -1.888709 0.265851
v 0.289559 -1.868563 0.199872
v 0.329570 -1.762645 0.174905
v 0.332940 -1.462905 -0.164877
v -0.124609 -1.924888 -0.184348
v 0.183674 -1.889926 -0.026046
vt 0.984197 0.641891
vt 0.908133 0.721042
vt 0.939043 0.605660
vt 0.958844 0.613599
vt 0.914818 0.740943
vt 0.990000 0.702838
vt 0.861785 0.771236
vt 0.838722 0.754653
vt 0.801361 0.665336
vt 0.886110 0.791275
vt 0.920712 0.762715
vt 0.984969 0.769523
vt 0.984197 0.805938
vt 0.624600 0.753938
vt 0.592227 0.794063
vt 0.573304 0.766432
vt 0.624159 0.724575
vt 0.876323 0.831223
vt 0.870739 0.811840
vt 0.981623 0.830724
vt 0.976071 0.855940
vt 0.825357 0.868665
vt 0.773680 0.894725
vt 0.801555 0.775806
vt 0.834670 0.791840
vt 0.747982 0.865609
vt 0.749846 0.800215
vt 0.724381 0.709756
vt 0.736642 0.706705
vt 0.685390 0.837793
vt 0.653272 0.805646
vt 0.666590 0.909235
vt 0.629994 0.864375
vt 0.822452 0.576735
vt 0.762676 0.600421
vt 0.802952 0.495398
vt 0.845079 0.491553
vt 0.917351 0.533421
vt 0.913306 0.481229
vt 0.665156 0.623558
vt 0.631263 0.575714
vt 0.580834 0.295589
vt 0.485654 0.178301
vt 0.540188 0.140158
vt 0.647410 0.307043
vt 0.462447 0.257983
vt 0.443364 0.209143
vt 0.642996 0.362606
vt 0.602858 0.384935
vt 0.411848 0.142139
vt 0.502413 0.110420
vt 0.436026 0.070195
vt 0.360849 0.100226
vt 0.365029 0.216326
vt 0.281163 0.239005
vt 0.276068 0.188228
vt 0.270743 0.149052
vt 0.625917 0.894258
vt 0.644246 0.903596
vt 0.604961 0.957869
vt 0.565584 0.917850
vt 0.529820 0.927582
vt 0.561567 0.990000
vt 0.485058 0.988922
vt 0.479140 0.940448
vt 0.385823 0.984337
vt 0.382482 0.959934
vt 0.572340 0.843506
vt 0.608323 0.864367
vt 0.534581 0.811015
vt 0.582484 0.820278
vt 0.553808 0.790492
vt 0.617682 0.811565
vt 0.615645 0.686262
vt 0.623531 0.705653
vt 0.572085 0.719835
vt 0.575351 0.680204
vt 0.536078 0.719206
vt 0.502945 0.719680
vt 0.532927 0.680204
vt 0.552912 0.680619
vt 0.521241 0.669973
vt 0.495780 0.712524
vt 0.432791 0.786291
vt 0.430645 0.777204
vt 0.408441 0.812806
vt 0.467673 0.806687
vt 0.468956 0.820313
vt 0.447174 0.812383
vt 0.409290 0.823521
vt 0.873368 0.932271
vt 0.769286 0.968013
vt 0.556225 0.576745
vt 0.571320 0.568619
vt 0.547946 0.558683
vt 0.556055 0.516291
vt 0.473991 0.485254
vt 0.497858 0.476159
vt 0.587234 0.558498
vt 0.562143 0.469710
vt 0.620449 0.577263
vt 0.614865 0.472701
vt 0.494910 0.460863
vt 0.519452 0.450981
vt 0.472236 0.462209
vt 0.514856 0.398998
vt 0.433918 0.320504
vt 0.454632 0.487435
vt 0.457131 0.465150
vt 0.536973 0.563743
vt 0.546527 0.579475
vt 0.501709 0.400332
vt 0.394491 0.282844
vt 0.315251 0.320008
vt 0.368840 0.480152
vt 0.378844 0.492135
vt 0.379704 0.581193
vt 0.384654 0.647221
vt 0.404646 0.773733
vt 0.403540 0.714364
vt 0.401385 0.686807
vt 0.282538 0.701946
vt 0.254685 0.604285
vt 0.258586 0.570157
vt 0.263611 0.507504
vt 0.267922 0.487284
vt 0.238254 0.371683
vt 0.206301 0.286833
vt 0.187892 0.239040
vt 0.178558 0.195017
vt 0.291991 0.949995
vt 0.310330 0.880283
vt 0.320072 0.816209
vt 0.320144 0.779052
vt 0.296757 0.740204
vt 0.276262 0.810340
vt 0.266361 0.768896
vt 0.274623 0.731873
vt 0.257986 0.879086
vt 0.232083 0.930461
vt 0.161931 0.322966
vt 0.143703 0.284874
vt 0.123378 0.234647
vt 0.213810 0.390536
vt 0.232148 0.486454
vt 0.215174 0.502036
vt 0.173787 0.681277
vt 0.163306 0.560875
vt 0.117569 0.550327
vt 0.122777 0.514033
vt 0.756023 0.283185
vt 0.755121 0.268993
vt 0.801012 0.277230
vt 0.800895 0.345305
vt 0.132267 0.613089
vt 0.799492 0.218840
vt 0.097365 0.446336
vt 0.124903 0.401763
vt 0.128264 0.353861
vt 0.074710 0.342692
vt 0.017736 0.303642
vt 0.010000 0.328600
vt 0.659971 0.270209
vt 0.647628 0.199503
vt 0.738567 0.173333
vt 0.700131 0.247137
vt 0.121811 0.876056
vt 0.109736 0.864367
vt 0.115316 0.848096
vt 0.135546 0.841457
vt 0.180755 0.754019
vt 0.673729 0.331270
vt 0.755730 0.371970
vt 0.800895 0.189226
vt 0.751438 0.247017
vt 0.709089 0.296721
vt 0.657340 0.293036
vt 0.666021 0.308334
vt 0.096862 0.882781
vn 0.9729 0.1279 0.1923
vn 0.8687 0.4952 0.0010
vn 0.7892 0.3537 0.5020
vn 0.9257 0.0971 0.3657
vn 0.8734 0.4865 0.0202
vn 0.9352 0.3535 -0.0180
vn 0.8433 0.5372 0.0126
vn 0.8431 0.5377 0.0069
vn 0.6563 0.5580 0.5078
vn 0.8569 0.5145 -0.0306
vn 0.8740 0.4843 0.0401
vn 0.9253 0.3771 0.0391
vn 0.9521 0.2689 -0.1451
vn 0.9608 0.2773 -0.0049
vn 0.9778 0.0687 -0.1979
vn 0.2425 0.4153 -0.8768
vn 0.5628 0.6465 -0.5150
vn 0.8739 0.1933 -0.4460
vn 0.5169 0.0752 -0.8527
vn 0.0136 0.3773 -0.9260
vn -0.3048 0.4099 -0.8597
vn 0.4693 0.7621 -0.4460
vn 0.5181 0.7017 -0.4889
vn -0.4886 0.6368 -0.5965
vn -0.3479 0.7854 -0.5119
vn -0.4793 0.8681 0.1288
vn 0.1466 0.9441 0.2953
vn -0.7333 0.6526 -0.1904
vn -0.7466 0.5926 0.3022
vn -0.8782 0.4113 -0.2438
vn -0.8448 0.4776 0.2413
vn 0.3131 0.4113 0.8560
vn -0.1745 0.4696 0.8654
vn -0.1783 0.3277 0.9278
vn 0.1454 0.1788 0.9731
vn 0.5514 0.1630 0.8181
vn 0.4172 0.0190 0.9086
vn -0.9114 0.2359 0.3371
vn -0.3741 0.1945 0.9067
vn -0.8755 0.0951 0.4737
vn -0.4545 0.0499 0.8893
vn -0.9373 0.2265 -0.2648
vn -0.0282 -0.0561 0.9980
vn 0.3938 -0.1046 0.9132
vn -0.3633 -0.1462 0.9201
vn -0.3388 -0.1901 0.9214
vn -0.0160 -0.1496 0.9886
vn 0.3505 -0.1519 0.9242
vn 0.8102 -0.1554 0.5651
vn 0.8104 -0.1370 0.5696
vn 0.7924 -0.1337 0.5951
vn 0.7624 -0.1258 0.6348
vn 0.9691 0.0238 0.2454
vn 0.9988 -0.0269 0.0403
vn 0.9623 0.2708 -0.0254
vn 0.9741 0.0900 -0.2073
vn 0.8875 -0.1285 -0.4425
vn 0.4260 -0.0559 -0.9030
vn 0.8809 -0.1122 -0.4599
vn 0.9677 0.0877 -0.2363
vn 0.7294 0.4637 -0.5029
vn 0.4555 -0.0436 -0.8891
vn 0.5282 0.4221 -0.7368
vn 0.9732 0.1038 -0.2052
vn 0.9682 0.0075 -0.2499
vn 0.9712 -0.0027 -0.2380
vn 0.9940 -0.1074 0.0188
vn 0.9720 -0.1400 -0.1883
vn 0.9363 -0.1400 0.3220
vn 0.9919 -0.1255 -0.0175
vn 0.8786 -0.0844 0.4700
vn -0.0052 0.1057 -0.9944
vn -0.4029 0.2737 -0.8733
vn -0.0259 0.4495 -0.8928
vn 0.0005 0.0125 -0.9999
vn -0.1528 0.4090 -0.8996
vn 0.0624 -0.0020 -0.9980
vn -0.3423 0.6005 -0.7226
vn -0.2863 0.0126 -0.9580
vn 0.0205 0.0466 -0.9987
vn -0.3979 0.2063 -0.8939
vn -0.8283 0.0370 -0.5590
vn -0.8654 0.1166 -0.4872
vn -0.3176 0.5993 -0.7348
vn -0.9219 0.3870 -0.0172
vn -0.9980 -0.0460 0.0420
vn -0.3165 0.2355 -0.9189
vn -0.7819 0.3457 -0.5188
vn -0.2139 0.4352 -0.8746
vn -0.0325 0.5720 -0.8196
vn -0.6981 0.7014 -0.1433
vn -0.9025 -0.1475 0.4046
vn -0.8991 -0.1714 0.4028
vn -0.9117 -0.2319 -0.3390
vn -0.3724 -0.2633 -0.8899
vn 0.0121 -0.2028 -0.9791
vn -0.0450 -0.2032 -0.9781
vn 0.9275 -0.1488 -0.3430
vn 0.9079 -0.1566 -0.3887
vn 0.4830 -0.2146 -0.8489
vn 0.4505 -0.3099 -0.8372
vn 0.0274 -0.3015 -0.9531
vn -0.0381 -0.2937 -0.9551
vn -0.4031 -0.3075 -0.8619
vn -0.9246 -0.2081 -0.3189
vn -0.9219 -0.1299 0.3649
vn -0.3749 -0.1910 0.9071
vn 0.0118 -0.1944 0.9808
vn 0.4107 -0.1829 0.8932
vn 0.7791 -0.0923 0.6200
vn 0.9763 -0.1321 0.1714
vn 0.9232 -0.1738 -0.3428
vn 0.9092 -0.1925 -0.3691
vn 0.9651 -0.2371 0.1112
vn 0.8774 -0.3212 -0.3563
vn 0.7713 -0.3207 -0.5497
vn 0.7616 -0.1226 0.6363
vn 0.3989 -0.1816 0.8988
vn -0.4314 -0.1867 0.8826
vn 0.0250 -0.2121 0.9769
vn -0.9406 -0.1610 0.2988
vn -0.9481 -0.2203 -0.2292
vn -0.6843 -0.3755 -0.6251
vn 0.4763 -0.4165 -0.7743
vn -0.0801 -0.3027 -0.9497
vn -0.1905 -0.5329 -0.8244
vn -0.6550 -0.5765 -0.4885
vn 0.3715 -0.6787 -0.6335
vn 0.0499 -0.8321 -0.5523
vn -0.0144 -0.3036 -0.9527
vn -0.7100 -0.6792 0.1859
vn -0.7846 -0.4598 0.4159
vn -0.4701 -0.3641 0.8039
vn -0.2021 -0.5063 0.8383
vn 0.4046 -0.2895 0.8674
vn 0.0223 -0.8397 0.5426
vn -0.1664 -0.9693 0.1807
vn 0.4980 -0.7002 0.5115
vn 0.7775 -0.6066 0.1657
vn 0.9373 -0.3072 0.1647
vn 0.8333 -0.4166 -0.3634
vn -0.2100 -0.9386 -0.2737
vn 0.6109 -0.7469 -0.2626
usemtl Default
s 1
f 1/1/1 2/2/2 3/3/3 4/4/4
f 5/5/5 2/2/2 1/1/1 6/6/6
f 7/7/7 8/8/8 2/2/2 5/5/5
f 9/9/9 3/3/3 2/2/2 8/8/8
f 10/10/10 11/11/11 12/12/12 13/13/13
f 12/14/12 14/15/14 15/16/15 13/17/13
f 16/18/16 17/19/17 18/20/18 19/21/19
f 20/22/20 21/23/21 22/24/22 23/25/23
f 22/24/22 21/23/21 24/26/24 25/27/25
f 26/28/26 27/29/27 22/24/22 25/27/25
f 25/27/25 28/30/28 29/31/29 26/28/26
f 30/32/30 31/33/31 29/31/29 28/30/28
f 28/30/28 25/27/25 24/26/24 30/32/30
f 32/34/32 33/35/33 34/36/34 35/37/35
f 9/9/9 27/29/27 33/35/33 32/34/32
f 8/8/8 22/24/22 27/29/27 9/9/9
f 32/34/32 36/38/36 3/3/3 9/9/9
f 35/37/35 37/39/37 36/38/36 32/34/32
f 23/25/23 22/24/22 8/8/8 7/7/7
f 13/13/13 18/20/18 17/19/17 10/10/10
f 27/29/27 26/28/26 29/40/29 33/35/33
f 34/36/34 33/35/33 29/40/29 31/41/31
f 38/42/38 39/43/39 34/44/34 31/45/31
f 40/46/40 41/47/41 39/43/39 38/42/38
f 30/48/30 42/49/42 38/42/38 31/45/31
f 34/44/34 39/43/39 43/50/43 35/51/35
f 37/52/37 35/51/35 43/50/43 44/53/44
f 45/54/45 43/50/43 39/43/39 41/47/41
f 45/54/45 46/55/46 47/56/47 43/50/43
f 43/50/43 47/56/47 48/57/48 44/53/44
f 4/58/4 3/59/3 36/60/36 49/61/49
f 50/62/50 49/61/49 36/60/36 37/63/37
f 50/62/50 37/63/37 44/64/44 51/65/51
f 48/66/48 52/67/52 51/65/51 44/64/44
f 53/68/53 1/69/1 4/58/4 49/61/49
f 53/68/53 49/61/49 50/62/50 54/70/54
f 55/71/55 53/68/53 54/70/54 56/72/56
f 6/73/6 1/69/1 53/68/53 55/71/55
f 19/74/19 18/75/18 57/76/57 58/77/58
f 18/75/18 13/17/13 15/16/15 57/76/57
f 59/78/59 60/79/60 61/80/61 62/81/62
f 56/72/56 54/70/54 60/79/60 59/78/59
f 63/82/63 61/80/61 60/79/60 64/83/64
f 65/84/65 66/85/66 64/83/64 60/79/60
f 67/86/67 66/85/66 65/84/65
f 65/84/65 60/79/60 54/70/54 68/87/68
f 51/65/51 69/88/69 54/70/54 50/62/50
f 69/88/69 70/89/70 68/87/68 54/70/54
f 70/89/70 67/86/67 65/84/65 68/87/68
f 69/88/69 71/90/71 67/86/67 70/89/70
f 51/65/51 52/67/52 71/90/71 69/88/69
f 72/91/72 73/92/73 21/23/21 20/22/20
f 62/81/62 61/80/61 74/93/74 75/94/75
f 75/94/75 74/93/74 76/95/76 77/96/77
f 77/96/77 76/95/76 78/97/78 79/98/79
f 20/22/20 16/18/16 19/21/19 72/91/72
f 23/25/23 17/19/17 16/18/16 20/22/20
f 7/7/7 10/10/10 17/19/17 23/25/23
f 5/5/5 11/11/11 10/10/10 7/7/7
f 6/6/6 12/12/12 11/11/11 5/5/5
f 55/71/55 14/15/14 12/14/12 6/73/6
f 56/72/56 15/16/15 14/15/14 55/71/55
f 59/78/59 57/76/57 15/16/15 56/72/56
f 62/81/62 58/77/58 57/76/57 59/78/59
f 75/94/75 80/99/80 58/77/58 62/81/62
f 77/96/77 81/100/81 80/99/80 75/94/75
f 79/98/79 81/100/81 77/96/77
f 72/101/72 19/74/19 58/77/58 80/99/80
f 73/102/73 72/101/72 80/99/80 81/100/81
f 73/92/73 30/32/30 24/26/24 21/23/21
f 42/49/42 30/48/30 73/102/73 81/100/81
f 81/100/81 79/98/79 82/103/82 83/104/83
f 84/105/84 82/103/82 79/98/79 78/97/78
f 85/106/85 86/107/86 40/46/40 38/42/38
f 42/49/42 81/100/81 83/104/83
f 42/49/42 83/104/83 85/106/85 38/42/38
f 84/105/84 85/106/85 83/104/83 82/103/82
f 78/97/78 87/108/87 88/109/88 84/105/84
f 87/108/87 78/97/78 76/95/76 89/110/89
f 76/95/76 74/93/74 90/111/90 89/110/89
f 61/80/61 63/82/63 90/111/90 74/93/74
f 88/109/88 91/112/91 85/106/85 84/105/84
f 85/106/85 91/112/91 86/107/86
f 45/54/45 41/47/41 40/46/40 92/113/92
f 86/107/86 92/113/92 40/46/40
f 93/114/93 46/55/46 45/54/45 92/113/92
f 94/115/94 93/114/93 92/113/92 86/107/86
f 88/109/88 94/115/94 86/107/86 91/112/91
f 94/115/94 88/109/88 87/108/87 95/116/95
f 87/108/87 89/110/89 96/117/96 95/116/95
f 96/117/96 89/110/89 90/111/90 97/118/97
f 67/86/67 98/119/98 66/85/66
f 66/85/66 98/119/98 99/120/99 64/83/64
f 64/83/64 99/120/99 100/121/100 63/82/63
f 100/121/100 97/118/97 90/111/90 63/82/63
f 101/122/101 102/123/102 97/118/97 100/121/100
f 96/117/96 97/118/97 102/123/102 103/124/103
f 95/116/95 96/117/96 103/124/103 104/125/104
f 95/116/95 104/125/104 105/126/105 94/115/94
f 105/126/105 106/127/106 93/114/93 94/115/94
f 107/128/107 46/55/46 93/114/93 106/127/106
f 107/128/107 108/129/108 47/56/47 46/55/46
f 48/57/48 47/56/47 108/129/108 109/130/109
f 52/67/52 48/66/48 109/131/109 110/132/110
f 110/132/110 111/133/111 71/90/71 52/67/52
f 98/119/98 67/86/67 111/133/111 112/134/112
f 112/134/112 113/135/113 99/120/99 98/119/98
f 99/120/99 113/135/113 101/122/101 100/121/100
f 67/86/67 71/90/71 111/133/111
f 111/133/111 114/136/114 115/137/115 112/134/112
f 112/134/112 115/137/115 116/138/116 113/135/113
f 116/138/116 101/122/101 113/135/113
f 110/132/110 117/139/117 114/136/114 111/133/111
f 117/139/117 110/132/110 109/131/109 118/140/118
f 108/129/108 107/128/107 119/141/119 120/142/120
f 109/130/109 108/129/108 120/142/120 118/143/118
f 119/141/119 107/128/107 106/127/106 121/144/121
f 121/144/121 106/127/106 105/126/105 122/145/122
f 123/146/123 122/145/122 105/126/105 104/125/104
f 101/122/101 116/138/116 124/147/124 102/123/102
f 103/124/103 102/123/102 124/147/124 125/148/125
f 104/125/104 103/124/103 125/148/125 123/146/123
f 126/149/126 127/150/127 123/146/123 125/148/125
f 128/151/128 129/152/129 130/153/130 124/154/124
f 130/155/130 126/149/126 125/148/125 124/147/124
f 129/152/129 126/156/126 130/153/130
f 121/144/121 127/150/127 131/157/131 132/158/132
f 127/150/127 121/144/121 122/145/122 123/146/123
f 133/159/133 119/141/119 121/144/121 132/158/132
f 134/160/134 120/142/120 119/141/119 133/159/133
f 134/160/134 135/161/135 118/143/118 120/142/120
f 136/162/136 135/161/135 134/160/134
f 132/158/132 131/157/131 134/160/134 133/159/133
f 136/163/136 134/164/134 131/165/131 137/166/137
f 135/167/135 138/168/138 139/169/139 140/170/140
f 135/167/135 140/170/140 117/139/117 118/140/118
f 114/136/114 117/139/117 140/170/140
f 141/171/141 124/147/124 116/138/116 115/137/115
f 140/172/140 128/151/128 124/154/124 141/173/141
f 141/171/141 115/137/115 114/136/114 140/170/140
f 127/174/127 126/156/126 129/152/129 142/175/142
f 131/165/131 127/174/127 142/175/142 137/166/137
f 129/152/129 128/151/128 143/176/143 142/175/142
f 137/166/137 142/175/142 143/176/143 136/163/136
f 138/177/138 136/163/136 143/176/143 139/178/139
f 135/167/135 136/179/136 138/168/138
f 139/178/139 143/176/143 128/151/128 140/172/140
